<?xml version="1.0" encoding="utf-8"?>
<!DOCTYPE svg PUBLIC "-//W3C//DTD SVG 1.1//EN" "http://www.w3.org/Graphics/SVG/1.1/DTD/svg11.dtd">
<svg version="1.1" id="Layer_1" xmlns="http://www.w3.org/2000/svg" xmlns:xlink="http://www.w3.org/1999/xlink" x="0px" y="0px"
	 width="200px" height="200px" viewBox="0 0 200 200" style="enable-background:new 0 0 200 200;" xml:space="preserve">
<g>
	<path style="fill:none;stroke:#231F20;stroke-miterlimit:10;" d="M97.131,36.023c0.049-2.167-2.238-5.434-4.64-4.878
		c-2.911,0.674-3.85,5.296-7.724,3.467c-2.269-1.067-2.865-10.16-3.038-12.396c4.238-0.47,8.971-1.525,12.67-3.729
		c-1.594-1.168-1.424-4.23-0.17-5.632c2.122-2.375,6.688-2.538,9.544-1.776c2.107,0.562,1.043,2.477,1.406,3.992
		c0.457,1.904,5.036,0.771,6.222,0.476c5.885-1.468,12.208-3.074,17.854-5.287c2.838-1.104,6.356-2.135,9.407-1.679
		c3.483,0.521,3.216,4.627,7.646,4.244c-0.894-0.862-3.477-1.915-3.462-3.435c0.009-0.901,1.629-2.967,2.604-3.094
		c1.537-0.205,4.612-1.84,5.988-0.736c2.108,1.692,4.228,3.373,6.383,5.006c3.074,2.33,6.386,2.036,9.342,5.821
		c1.228,1.572,1.087,2.909,2.414,4.589c1.699,2.151,3.506,4.849,5.529,6.711c-0.502-0.873-0.505-2.027,0.632-2.293
		c1.788-0.419,4.689,5.545,5.44,6.738c4.439,7.058,8.005,14.682,10.493,22.643c3.75,11.993,5.093,25.958,3.824,38.419
		c-2.535,24.893-15.035,48.163-34.294,64.12c-42.533,35.238-108.075,26.354-139.822-18.849C10.095,122.396,4,102.735,4,83.358
		c0-9.94,1.53-19.865,4.549-29.295c1.725-5.388,3.931-10.621,6.582-15.619c1.214-2.288,2.426-3.855,4.06-5.598
		c0.196-0.209,0.878-0.257,1.127-0.672c0.776-1.29,1.556-2.578,2.374-3.842c0.676-1.044,1.808-0.942,2.356-1.471
		c1.955-1.884,2.235-3.594,3.222-5.501c3.148-6.036,10.599-7.447,14.459-12.587c1.116-1.485,3.666-2.857,5.566-2.675
		c0.73,0.07,0.913,1.645,1.396,1.652c3.698,0.058,3.47-3.303,5.815,0.494c0.627,1.015-1.494,4.053-2.161,5.192
		c-2.188,3.736-4.444,1.987-7.015,4.209c6.864-1.059-3.749,17.342-3.601,20.032c7.653-3.399,8.389,11.95,0.25,10.973
		c-7.88-0.924-8.197,9.378-7.169,15.203c5.239-0.888,11.108-1.879,16.383-0.887c3.09,0.581,4.451,2.391,1.395,4.589
		c-5.372,3.852,3.113,5.691,5.867,5.219c2.271-0.387,6.011-1.712,6.851-4.255c1.01-3.059-3.446-2.873-2.073-5.845
		c1.125-2.437,6.563-2.864,8.811-3.361c5.234-1.157,10.525-2.121,15.844-2.787c-1.369-4.545-2.836-9.587-2.586-14.372
		c0.349-6.677,8.407-1.452,10.829-6.243"/>
	<path style="fill:#231F20;" d="M175.719,28.471c0.17,0.305,0.341,0.61,0.511,0.915c-2.093,0.907-9.823,1.61-7.463,4.198
		c3.299,3.616,2.173,8.066-3.513,7.417c-2.308-0.262-4.286-1.692-5.138-3.858c-1.126-2.85-0.895-3.304-4.397-1.66
		c-3.96,1.857-10.15,7.917-14.64,6.167c0.57,2.503-13.021,5.301-15.768,5.403c-5.899,0.218-5.555-2.458-4.441-6.875
		c0.702-2.813-9.206-0.311-9.877-0.042c-1.651,0.661-6.782,2.77-3.652,5.003c1.745,1.25,4.839,0.734,5.73,3.071
		c0.629,1.651-0.892,3.76-2.234,4.565c-2.701,1.62-6.301,2.067-9.325,2.714c-3.082,0.658-9.942,3.249-12.613,1.028
		c-0.478,2.416-14.415,3.418-17.556,4.183c-1.272,0.31-2.53,0.669-3.797,0.996c-3.764,0.969-2.111,1.521-1.028,3.104
		c3.989,5.831-5.064,9.187-9.546,9.562c-2.982,0.249-6.611-0.382-7.87-3.495c-1.25-3.088,2.066-4.173,3.074-6.342
		c0.26-0.562-7.517-0.495-7.974-0.471c-2.328,0.122-9.871,2.163-10.904,0.349c-1.546,2.556-9.734,2.887-12.143,1.929
		c-4.931-1.961-0.505-5.111-0.526-8.071c-0.015-2.112-2.9-3.745-4.337-1.441c0.526-1.579,3.534-2.222,4.735-1.186
		c1.755,2.001-0.576,4.612-1.256,6.532c-1.699,5.025,7.242,3.463,9.295,3.068c7.485-1.442,16.067-3.955,23.625-2.177
		c3.76,2.789-4.649,4.655-1.405,8.321c2.809,3.174,10.959,1.864,13.643-1.005c3.684-3.939-2.189-4.431-0.678-7.713
		c1.609-3.496,12.353-4.132,15.559-4.721c6.444-1.182,12.962-1.854,19.407-3.033c3.062-0.56,12.692-1.056,13.054-5.528
		c0.227-2.948-9.179-2.335-6.565-6.708c1.771-2.962,12.873-7.116,15.491-3.428c1.791,2.522-3.875,6.754,2.104,7.115
		c5.765,0.349,11.923-2.643,17.236-4.514c4.827-1.683,8.822-4.066,13.281-6.427c1.464-0.775,3.516-1.953,5.257-1.304
		c2.485,0.927,1.213,5.323,4.943,6.161c2.143,0.481,6.904-0.46,5.937-3.603c-0.394-1.275-3.671-3.658-2.894-4.759
		c1.646-2.331,12.122-1.627,8.705-6.522C178.628,26.065,177.972,30.256,175.719,28.471L175.719,28.471z"/>
	<path style="fill:none;stroke:#231F20;stroke-miterlimit:10;" d="M152.019,163.153c0.166-0.17,1.269-1.217,1.015-1.416
		c-0.332-0.257-1.277,0.573-1.52,0.748c0.246-0.159,0.492-0.317,0.738-0.477c-1.221,2.192-3.661,3.788-5.645,5.278
		C148.617,166.224,150.403,164.745,152.019,163.153L152.019,163.153z"/>
	<path style="fill:#231F20;" d="M159.515,78.765c3.318-3.632-1.511-12.714-3.329-15.818c-0.992-1.694-2.133-3.534-4.379-3.534
		c-2.94,0-2.696,3.898-4.998,5.09c-4.362,2.258-7.003-2.152-7.35-6.211c-0.363-4.137,2.231-3.26,5.356-3.701
		c6.239-0.881,0.636-13.144-3.734-12.94c0.867-2.542-4.854-7.161-6.444-9.165c-0.939-1.184-2.758-2.929-2.124-4.583
		c1.119-2.921,4.004-0.623,6.257-1.344c5.594-1.81-0.95-10.488-5.146-10.21c-2.26,0.143-3.571,2.986-6.1,1.595
		c-2.324-1.278-2.317-5.652-5.062-5.612c1.185,3.062,3.418,7.516,7.339,7.046c2.385-0.286,3.487-2.884,6.084-1.721
		c1.797,0.805,3.82,4.024,3.788,5.918c-0.091,5.299-6.3,0.218-7.988,3.625c-1.728,3.434,4.706,9.221,6.728,11.571
		c3.234,3.761,7.675,7.263,8.015,12.648c0.294,4.65-8.626,0.187-8.153,6.991c0.354,5.1,5.958,11.209,10.396,5.877
		c1.239-1.488,0.969-3.832,3.35-3.755c2.284,0.074,3.708,3.741,4.495,5.376c1.506,3.125,5.362,31.193,12.651,25.454
		c1.655-1.303,1.641-4.699,4.096-5.093c2.477-0.395,3.699,1.123,4.271,3.337c0.701,2.723,0.667,6.28-1.311,8.525
		c-1.197,1.358-3.562,0.373-5.149,0.863c-5.121,1.584-2.775,10.673-0.866,13.943c1.087,1.862,3.144,2.824,3.721,5.023
		c0.729,2.775-0.003,6.14-0.816,8.806c-1.436,4.7-4.025,6.799-8.611,7.553c-6.056,0.987-7.994,11.097-1.579,7.754
		c-4.649,2.106-3.682-6.159,1.998-6.715c5.192-0.508,7.836-4.319,9.318-9.178c1.193-3.912,2.087-9.806-1.921-12.448
		c-2.475-1.631-5.819-12.64-1.257-13.671c3.962-0.896,6.611,0.558,7.63-5.087c0.623-3.455-2.006-14.617-7.098-8.318
		c-1.391,1.721-4.383,7.475-6.681,2.736C163.737,86.969,161.975,79.486,159.515,78.765L159.515,78.765z"/>
	<path style="fill:none;stroke:#231F20;stroke-miterlimit:10;" d="M148.357,163.308c-0.174,0.591,2.277-0.238,2.255-0.229
		c-1.857,1.009-0.837-0.529-0.307-1.08c0.979-1.017,2.127-2.194,3.58-2.459c3.19-0.577,4.081-3.321,5.463-5.875
		c-0.281-0.11-0.562-0.222-0.844-0.332l0,0c1.77-0.669,12.521-11.982,10.931-14.842c-0.342-0.614-2.183,0.735-2.396,0.877
		c0.366-0.21,0.978-0.611,1.411-0.566"/>
	<path style="fill:none;stroke:#231F20;stroke-miterlimit:10;" d="M158.505,153.333"/>
	<path style="fill:#231F20;" d="M41.648,145.068c-0.785-2.613-4.716-7.217-2.899-10.015c2.811-4.327,8.577,3.531,12.179-0.328
		c3.119-3.341-1.492-10.014-4.448-11.835c-2.968-1.829-3.653,0.927-6.405,1.024c-4.128,0.146-5.431-2.991-6.106-6.629
		c-0.875-4.716,0.625-9.487,0.355-14.249c-0.158-2.778-0.259-18.181-6.238-14.36c-3.611,2.308-4.791-0.234-4.458-4.201
		c0.276-3.29,1.818-5.271,4.926-3.337c6.072,3.781,6.186-14.249,4.744-16.73c3.423-0.06,2.195-1.844,2.062-4.249
		c0-1.261-0.1-2.391,0.071-3.674c0.724-5.419,2.985-8.198,8.279-7.783c6.393,0.324,6.623-12.812,0.999-11.631
		c4.012-0.567,2.023,6.963,0.696,8.592c-3.01,3.697-7.458-0.616-10.193,3.907c-4.128,6.828-1.417,15.537-1.546,23.063
		c-0.056,3.244-0.755,9.795-5.39,7.024c-4.801-2.873-5.158,5.745-4.764,7.993c1.416,8.077,7.807-3.346,9.403,5.319
		c0.762,4.137,1.078,8.419,1.203,12.619c0.101,3.373-1.036,6.529-0.662,9.871c0.533,4.998,4.223,12.481,10.061,7.915
		c4.894-3.829,13.902,16.925-0.26,9.836c-3.505-1.755-6.075,0.855-5.076,4.393c1.256,4.446,3.98,8.989,7.231,12.241
		C44.088,148.302,43.025,146.562,41.648,145.068L41.648,145.068z"/>
	<path style="fill:#231F20;" d="M190.977,57.794c0.61,0.434,0.994,0.757,1.781,0.679c-1.437-2.798-8.691,1.384-7.702,4.754
		c1.876,3.57,4.799,10.206-1.188,11.922c-4.565,1.276-1.404-11.622-6.402-9.675c-3.199,1.247-5.66,4.692-8.328,6.829
		c-8.176,6.547-18.477,11.794-28.727,14.316c-6.019,1.481,3.362-7.791-2.612-8.868c-4.847-0.874-12.249,2.08-15.51,5.801
		c-4.315,4.923,8.482,6.078,3.363,10.701c-3.502,3.162-9.488,5.032-13.996,5.746c-9.179,1.455-18.339,1.084-27.498,3.04
		c-4.992,1.065-10.142,2.572-14.799,4.685c-3.392,1.531,8.329,5.879,1.462,9.055c-3.198,1.479-7,2.236-10.512,2.436
		c-2.345,0.134-4.563-0.449-5.578-2.795c-1.378-3.153,4.292-3.546,1.593-6.804c-3.638-4.39-11.94-2.191-16.66-1.702
		c-5.818,0.604-11.121,1.44-16.805-0.333c-7.492-2.346-4.776-6.128-5.829-11.948c-0.675-2.143-6.305-6.502-6.932-2.346
		c0.923-2.445,5.656,1.607,6.073,2.72c1.203,3.424-1.502,6.517,1.513,9.687c2.707,2.847,13.733,7.569,16.459,2.851
		c0.424,2.561,11.24-0.019,13.945-0.176c1.666-0.097,8.528-0.035,7.971,3.222c-0.33,1.93-3.08,1.84-2.614,4.521
		c0.467,2.688,3.149,4.116,5.642,4.365c3.661,0.366,10.962-1.117,13.769-3.63c3.025-2.708-0.902-5.518-2.945-7.204
		c-1.397-1.152,5.496-2.932,6.618-3.31c3.992-1.344,8.124-2.178,12.263-2.931c2.83-0.515,8.725,0.324,10.193-2.384
		c1.509,2.671,8.615,0.764,11.25,0.353c4.898-0.764,9.396-2.128,13.712-4.624c3.081-1.781,5.683-5.153,2.065-8.029
		c-1.871-1.487-4.878-1.965-2.711-4.549c3.051-3.639,8.777-4.989,13.312-5.477c6.041-0.641-0.325,5.72,0.817,7.971
		c1.723,3.337,22.392-4.336,22.089-7.896c3.236,2.469,13.158-8.027,15.441-10.065c7.374-6.583,3.895,3.354,7.25,6.94
		c1.723,1.84,4.769-0.79,5.494-2.411c1.199-2.68,0.477-6.323-0.866-8.787c-0.658-1.862-1.65-2.14,0.131-3.911
		C188.166,59.34,191.301,59.453,190.977,57.794L190.977,57.794z"/>
	<path style="fill:none;stroke:#231F20;stroke-miterlimit:10;" d="M17.604,132.308C17.075,131.805,17.418,132.153,17.604,132.308
		C17.48,132.19,17.604,132.308,17.604,132.308z"/>
	<path style="fill:#231F20;" d="M173.494,116.889c1.952,0.787,12.52-9.15,12.648-11.287c0.127-0.451,0.104-0.899-0.07-1.345
		c0.237,0.441-6.581,7.417-6.86,7.691c-4.514,4.446-9.81,8.375-15.042,11.95c-3.646,2.492-8.427,5.875-13.163,4.841
		c-3.38-0.736,5.183-10.71-3.938-8.694c-4.027,0.776-8.632,2.865-11.845,5.364c-6.819,5.302,2.848,4.558,2.275,7.541
		c-0.515,2.704-8.067,4.49-9.922,5.05c-5.292,1.597-10.705,2.217-16.196,2.503c-6.07,0.316-12.015,1.296-17.918,2.7
		c-1.283,0.305-15.451,3.501-10.917,6.802c1.103,0.803,4.664,2.21,2.473,3.791c-1.824,1.315-4.423,1.619-6.586,1.809
		c-2.407,0.21-13.753,1.139-11.861-4.311c0.782-2.251,1.57-4.151-1.68-4.538c-2.739-0.326-5.553-0.288-8.306-0.422
		c-6.311-0.309-12.685-0.56-18.855-2.036c-2.191-0.524-4.652-1.16-6.52-2.47c-1.114-0.583-1.425-4.176-2.509-5.417
		c-1.67-1.722-8.673-6.531-5.319-0.636c-1.479-2.704,0.48-2.297,2.04-1.13c2.58,1.929,3.009,3.278,4.036,5.94
		c1.153,2.989,11.833,7.301,12.191,4.482c1.844,3.52,16.143,2.476,20.03,2.571c5.827,0.146,3.787,0.504,3.713,4.866
		c-0.063,3.731,6.16,4.121,8.562,4.187c2.872,0.155,11.488,0.592,12.615-2.933c0.889-2.781-7.047-4.125-2.69-6.275
		c4.234-2.089,9.275-3.103,13.845-4.08c2.1-0.449,8.49-0.023,9.225-2.543c2.607,2.7,11.22,0.317,14.534-0.242
		c5.155-0.869,12.101-2.258,16.031-5.955c3.53-3.321-5.18-3.689-3.01-6.916c1.507-2.239,4.419-3.449,6.772-4.446
		c1.821-0.771,7.515-3.808,9.596-2.085c2.653,2.15-5.439,8.729,1.436,8.77c4.496,0.026,8.712-2.384,12.182-5.021
		C166.516,123.425,173.974,119.413,173.494,116.889L173.494,116.889z"/>
	<path style="fill:#231F20;" d="M193.241,93.621c-1.947,3.645-2.824,6.433-2.564,10.33c0.182,2.049-4.395,8.656-5.167,5.756
		c0.104,2.936,2.153,1.769,3.491,0.317c1.604-1.74,2.855-5.683,2.198-8.011c-1.159-4.11,5.323-8.331,4.07-11.353
		C194.433,91.525,193.86,92.602,193.241,93.621C192.049,95.854,193.241,93.621,193.241,93.621z"/>
	<path style="fill:#231F20;" d="M23.166,137.321c-2.045-1.293-3.747-3.328-5.509-4.968c0.875,2.653,9.809,9.4,6.351,4.416
		c0.108,0.177,0.883,1.222,0.598,1.407C24.037,138.073,23.558,137.788,23.166,137.321C22.891,137.147,23.166,137.321,23.166,137.321
		z"/>
	<path style="fill:none;stroke:#231F20;stroke-miterlimit:10;" d="M23.38,135.767c0.192,0.348,0.412,0.701,0.627,1.003
		C23.985,136.745,23.671,136.28,23.38,135.767z"/>
	<path style="fill:none;stroke:#231F20;stroke-miterlimit:10;" d="M185.703,107.604c0.201-0.657,0.354-1.326,0.458-2.007
		c-0.304,1.314-0.985,2.72-0.636,4.107C185.508,108.997,185.567,108.297,185.703,107.604L185.703,107.604z"/>
	<path style="fill:#231F20;" d="M96.958,36.419c-3.904,3.852-11.477-0.755-10.855,7.549c0.337,4.5,1.876,8.812,3.332,13.042
		c1.388,4.032,3.519,8.935,2.992,13.296c-0.612,5.065-8.747,1.854-11.946,2.847c-4.105,1.275-3.164,6.918-2.349,10.051
		c0.401,1.544,1.031,3.547,2.465,4.458c2.21,1.406,4.486-2.053,6.118-2.955c6.582-3.639,11.489,4.268,12.153,9.86
		c0.806,6.781-1.52,14.455,1.857,20.774c4.029,7.543,9.336-1.525,13.833-3.065c5.878-2.013,9.431,7.01,6.582,11.208
		c-1.201,1.771-3.802,1.648-5.666,1.51c-2.704-0.202-5.501,0.66-7.703,2.22c-6.322,4.475-2.676,10.503,0.502,15.698
		c2.035,3.328,12.891,7.765,5.305,11.329c-4.407,2.07-11.384-0.087-14.915,3.994c-1.526,1.764-0.107,4.468,1.788,5.286
		c2.272,0.982,5.08,0.033,7.258-0.748c4.846-1.737,11.203-4.74,12.817,2.631c0.465,2.124-2.59,7.106,1.374,6.383
		c-2.639,0.222,0.115-3.292,0.031-4.526c-0.156-2.282-1.688-5.74-3.869-6.806c-3.712-1.813-9.193,1.84-12.795,2.703
		c-2.527,0.605-8.911-0.482-5.838-4.644c2.271-3.076,9.245-2.529,12.588-3.251c4.549-0.983,7.862-5.022,2.279-7.72
		c-2.653-1.282-3.641-2.935-5.453-5.13c-1.773-2.149-1.562-2.426-2.482-5.279c-1.577-4.886,0.05-11.149,6.569-10.913
		c2.598,0.095,6.289,1.459,8.435-0.687c2.349-2.35,2.039-6.632,1.143-9.533c-4.436-14.361-17.624,7.997-21.092-0.765
		c-1.302-3.289-0.803-7.14-1.145-10.592c-0.113-1.147-1.126-2.93-0.897-3.994c0.867-4.021,0.678-8.234-1.229-12.021
		c-2.279-4.524-10.586-9.394-14.32-3.551c-3.783,5.92-6.386-5.239-5.554-8.174c1.146-4.044,6.513-2.322,9.515-2.353
		c5.585-0.058,6.076-4.547,5.292-9.086c-0.39-2.258-1.37-8.226-4.179-8.944c2.73-1.63-0.711-10.189-1.111-12.508
		c-1.128-6.541,4.52-3.406,8.086-5.414"/>
	<path style="fill:none;stroke:#231F20;stroke-miterlimit:10;" d="M45.627,17.918l-0.095,0.046
		C45.544,17.961,45.579,17.944,45.627,17.918z"/>
	<path style="fill:none;stroke:#231F20;stroke-miterlimit:10;" d="M89.937,178.817c0.246,0.025,0.491,0.05,0.737,0.075
		C89.513,178.717,89.267,178.691,89.937,178.817C90.181,178.841,89.831,178.794,89.937,178.817z"/>
	<path style="fill:none;stroke:#231F20;stroke-miterlimit:10;" d="M48.629,14.345c-1.94,1.074-6.446-0.167-5.893,4.25
		c0.2,1.598,4.696-2.154,5.943-1.851c2.756,0.661,4.367-2.617,5.362-4.634c1.481-3,1.923-3.152,0.165-5.999
		C52.926,8.811,51.366,12.846,48.629,14.345C47.407,15.021,50.408,13.371,48.629,14.345z"/>
	<path style="fill:none;stroke:#231F20;stroke-miterlimit:10;" d="M40.688,34.685c-0.41,1.566,0.258,3.46,2.219,2.994
		c-1.055,0.049,3.104-9.046,3.862-10.458c0.948-1.763,3.046-5.07,2.46-7.146c-0.167-0.592-1.859-2.769-2.511-2.538
		C48.154,17.443,40.923,33.788,40.688,34.685L40.688,34.685z"/>
	<path style="fill:none;stroke:#231F20;stroke-miterlimit:10;" d="M78.404,176.191c0.492,0.141,0.986,0.162,1.481,0.066
		c-1.036,0.06-1.926-0.261-2.852-0.617C77.49,175.824,77.947,176.008,78.404,176.191C79.101,176.391,78.001,176.07,78.404,176.191z"
		/>
</g>
<path d="M131.006,53.7c0.151,0.027,0.142,0.016,0.223,0.075c0.06,0.074,0.025,0.02,0.074,0.147c0.104,0.168,0.04,0.247,0,0.447
	c-2.054,0.501-1.408,2.498-1.867,4.546c-0.335,1.52-0.256,3.334-0.592,4.842V64.5c-0.324,2.532-0.645,5.068-0.968,7.6
	c-0.183,0.097-0.21,0.133-0.524,0.147c-1.06-1.64-2.704-2.922-3.873-4.469c-0.377-0.495-0.872-1.419-1.489-1.639
	c-0.089,0.908-0.369,1.868-0.594,2.682c-0.495,1.776-0.718,3.541-1.121,5.29c-0.19,0.101-0.261,0.141-0.597,0.149
	c-0.557-0.903-1.391-1.623-2.007-2.456c-1.59-2.145-3.396-4.059-4.992-6.185c-0.38-0.505-0.964-0.914-1.342-1.415
	c-0.86-1.14-1.934-2.826-3.425-3.28c-0.574-0.174-1.191-0.01-1.789,0c-0.111-0.189-0.181-0.234-0.223-0.521
	c0.072-0.026,0.147-0.05,0.223-0.075c0.564-0.412,1.554-0.309,2.31-0.519c1.457-0.409,2.808-1.114,4.319-1.344
	c0.026,0.077,0.05,0.149,0.076,0.222c0.138,0.194,0.102,0.222,0.072,0.449c-0.51,0.06-1.05,0.462-1.189,0.895
	c-0.134,0.167-0.149,0.356-0.149,0.671c1.789,2.262,3.711,4.332,5.438,6.63c0.898,1.194,2.269,2.225,2.978,3.574
	c0.059-0.076,0.031-0.02,0.077-0.149c0.303-0.477,0.211-1.253,0.372-1.861c0.315-1.187,0.675-2.565,0.747-3.875
	c-0.527-0.374-0.957-1.051-1.343-1.567c-0.73-0.967-1.877-1.789-2.605-2.754c-0.486-0.643-1.207-1.58-2.011-1.863
	c-0.502-0.176-1.139-0.002-1.564-0.075v-0.149c-0.067-0.096-0.067-0.183-0.075-0.37h0.075v-0.077
	c2.183-0.115,3.868-1.205,5.811-1.489c0.125,0.209,0.196,0.252,0.223,0.596c-0.629,0.232-1.297,0.442-1.343,1.265
	c0.221,0.232,0.328,0.562,0.524,0.821c0.27,0.247,0.547,0.495,0.818,0.744c0.666,0.706,1.473,1.495,2.008,2.311h0.076v-0.148
	c0.318-0.477,0.216-1.324,0.374-1.937c0.503-2.004,0.9-3.427-1.717-3.28c-0.026-0.072-0.048-0.149-0.075-0.222
	c-0.057-0.086-0.054-0.125-0.074-0.297c0.671-0.347,1.532-0.289,2.388-0.521c0.944-0.253,1.81-0.742,2.83-0.895
	c0.026,0.076,0.047,0.148,0.07,0.224c0.067,0.096,0.072,0.185,0.076,0.374c-0.463,0.224-1.136,0.485-1.413,0.893
	c-0.489,0.718-0.497,1.626-0.743,2.609c-0.332,1.308-0.75,2.811-0.819,4.244c0.519,0.407,0.939,1.039,1.341,1.567
	c0.663,0.877,1.646,1.578,2.312,2.458c0.295,0.39,0.588,0.976,1.044,1.192v-0.151c0.341-0.55,0.133-2.007,0.294-2.755
	c0.478-2.162,0.276-4.664,0.747-6.853c0.139-0.653,0.172-2.357-0.071-2.832c-0.381-0.729-1.165-0.394-2.014-0.671
	c-0.026-0.147-0.05-0.297-0.075-0.446c0.075-0.024,0.148-0.05,0.223-0.075c0.44-0.28,1.052-0.154,1.641-0.297
	C128.881,54.4,130.437,54.118,131.006,53.7L131.006,53.7z"/>
<g>
	<path style="fill:#231F20;" d="M42.226,48.565c2.31,0.274,2.821-0.249,2.875-0.323c0.554-0.006,2.777-0.064,5.394-0.39
		c3.172-0.397,6.711-1.677,6.711-1.677s2.926-1.069,3.946-2.222l0.031-0.004c0,0-1.306-1.13-1.991-2.112
		c0,0-0.538-1.049,0.051-1.948c0.596-0.902,1.574-1.898,4.414-3.093c2.835-1.198,4.436-0.968,4.436-0.968s1.118-0.012,1.896,0.847
		c0.78,0.861,1.222,1.894,1.222,1.894s0.054,0.715-0.216,1.184c-0.266,0.474-0.292,0.524-0.292,0.524s0.093,0.03,0.711-0.014
		c0.619-0.039,2.193-0.267,5.028-0.952c2.84-0.683,6.416-1.829,6.416-1.829s9.226-2.972,10.18-3.228
		c0.955-0.255,2.556-0.821,2.556-0.821l1.073,0.318c0,0-0.261,1.041-0.284,2.182v-0.107c0,0-0.042,0.566-1.314,1.541
		C93.8,38.34,92.761,38.27,91.91,38.2c-0.85-0.073-1.251-0.135-1.496-0.086l-1.356,0.075c6.356-0.895-3.901,2.617-1.975,1.312
		c-3.396,2.005,1.667,16.917,1.667,16.917c-7.045,0.886-15.952,2.588-20.494,3.766c-4.542,1.18-4.09,2.483-4.09,2.483
		c-0.976,1.531-0.452,2.326-0.452,2.326s1.561,0.531,1.915,2.241c0.358,1.712-1.379,3.517-1.379,3.517s-2.277,1.378-5.551,1.938
		c-3.272,0.562-4.503,1.188-6.449-0.355c-1.712-1.357-2.146-4.426-1-5.25c1.151-0.825,2.019-1.532,2.167-1.917
		c-1.203-1.204-0.333-0.833-0.333-0.833l0.575-0.671c-3.775-2.503-18.61,0.119-18.61,0.119c-0.401-2.201-0.681-2.205-0.531-5.869
		c0.097-2.343,0.548-3.299,0.548-3.299l0.109-0.309c0,0,0.842-2.716,2.148-4.594c0,0,1.134-0.324,2.569-0.658
		C41.328,48.727,42.226,48.565,42.226,48.565L42.226,48.565z"/>
	<path style="fill:#C0C2C4;" d="M102.622,21.443c0.786-0.024,1.935-0.062,2.383,0.297c0.063,0.087,0.059,0.127,0.076,0.297
		c-0.355,0.417,0.056,1.445,0.598,1.489c0.579-0.388,1.481-0.307,2.157-0.594c0.439-0.185,0.886-0.634,1.192-0.968
		c0.572,0.004,2.47,0.689,2.609,1.045h0.073c-0.632,1.391,0.042,2.987-0.374,4.616c-0.706,2.772-2.045,4.99-4.024,6.484
		c-0.488,0.369-0.836,1.074-1.562,1.19v-0.073c1.963-1.873,2.9-4.321,3.65-7.452c0.193-0.811-0.029-3.548-0.296-3.947
		c-0.113-0.168-0.251-0.194-0.521-0.222c-0.465,0.301-1.146,0.258-1.717,0.445c-1.218,0.397-2.593,0.794-3.799,1.192
		c-0.497,0.166-1.731,0.291-1.862,0.747c0.342,0.282,0.455,0.852,0.669,1.267c0.429,0.815,1.099,1.302,1.118,2.533
		c-0.199,0.071-0.516,0.079-0.814,0.075c-0.374-0.125-0.748-0.247-1.121-0.372c-0.714-1.168-1.069-2.524-1.862-3.577
		c-0.228-0.298-0.841-0.225-1.043-0.52c0.373-0.221,0.932-0.574,1.565-0.522c0.262,0.023,0.694,0.239,1.041,0.152
		c0.458-0.118,2.613-0.738,2.907-0.97c0.059-0.076,0.024-0.021,0.076-0.15c-0.441-0.498-0.422-1.476-1.267-1.564
		c-0.144-0.088-0.396-0.044-0.448-0.075c-0.041-0.052-0.111-0.004-0.074-0.147h0.074C102.149,21.726,102.371,21.679,102.622,21.443
		L102.622,21.443z"/>
	<path style="fill:#C0C2C4;" d="M116.104,23.976c0.889-0.042,2.013,0.046,2.089,0.818c-0.507,0.329-0.496,0.825-0.747,1.415
		c-0.121,0.281-0.388,0.55-0.521,0.82c-0.059,0.118-0.109,0.073,0,0.149c0.157,0.139,0.205,0.067,0.298,0.298
		c0.115,0.203-0.041,0.316,0,0.521c0.053,0.339,0.293,0.836,0.445,1.191c0.498,1.132,1.364,2.308,1.488,3.726
		c-0.193,0.108-0.297,0.183-0.592,0.222c-0.378-0.284-0.95-0.343-1.121-0.818v-0.596c-0.221-0.768-0.695-1.612-1.044-2.312
		c-0.178-0.344-0.178-0.793-0.522-0.968c-0.502,0.766-2.66,2.817-3.65,2.979v-0.073h0.075c0.367-0.562,1.02-0.893,1.412-1.419
		c0.998-1.325,2.528-3.328,2.312-5.513c-0.22-0.062-0.281-0.101-0.373-0.295C115.81,24.097,116.002,24.055,116.104,23.976z"/>
	<path style="fill:#C0C2C4;" d="M26.712,47.068c-0.081-0.068-0.008,0.006-0.077-0.074c-0.151,0.032-0.143,0.018-0.22,0.074
		c-0.542,0.279-1.457,2.684-2.535,2.013c-0.549,0.004-0.6-0.103-0.895-0.301c0.036-0.708,1.24-2.002,1.718-2.309
		c0.059-1.138,0.351-2.357,0.222-3.425c-0.077-0.027-0.15-0.053-0.222-0.073c-0.263-0.087-0.471,0.316-0.673,0.519
		c-0.546,0.548-1.221,1.124-1.64,1.787c-0.634-0.006-2.662-0.024-3.054,0.225h-0.224c0.186-0.483,1.621-2.063,1.192-2.757
		c-0.025-0.077-0.049-0.149-0.076-0.225c-1.359,0.003-2.997,2.424-3.427,3.426c-0.216,0.501-0.216,1.079-0.519,1.489v0.075
		c1.016-0.125,2.036-0.25,3.053-0.374c0.386-0.083,0.916,0.097,1.192-0.073h1.043c0.173-0.222,0.345-0.447,0.521-0.671
		c0.622-0.656,1.447-1.321,1.937-2.083h0.224v1.039c-0.571,0.514-1.456,1.308-1.714,2.085v0.596
		c-0.382,1.658,0.42,2.502,1.863,2.386C25.347,49.54,26.896,48.82,26.712,47.068z M17.998,45.653h-0.45
		c0.205-0.821,1.01-1.76,2.012-1.789v0.372c-0.347,0.449-0.694,0.893-1.042,1.342C18.304,45.575,18.113,45.575,17.998,45.653z"/>
	<path style="fill:#C0C2C4;" d="M178.448,46.024c-0.309-0.763-0.553-1.359-0.895-2.012c-0.562-1.08-1.154-2.662-2.755-2.683
		c-0.396,0.337-0.815,0.606-1.044,1.116c-1.466,3.318,1.544,7.055,2.904,8.868c0.482,0.639,1.051,1.34,1.789,1.71
		c-0.171,2.59-2.385,3.414-4.765,2.384c-1.693-0.727-3.044-2.33-4.1-3.727c-0.357-0.469-0.905-0.859-1.266-1.342
		c-0.327-0.449-0.567-0.954-0.967-1.342v-0.073h-0.148c0.208,0.803,0.666,1.535,0.97,2.235c1.259,2.896,2.857,4.922,5.287,6.63
		c1.146,0.806,3.054,2.079,4.694,0.893C181.024,56.618,179.624,48.915,178.448,46.024z M178.227,49.603
		c-0.192,0.188-1.012-0.789-1.192-0.969c-0.832-0.834-2.502-2.299-1.562-3.725h0.371c0.73,0.758,1.405,1.483,1.867,2.531
		c0.24,0.562,0.286,1.516,0.592,2.013C178.255,49.582,178.286,49.526,178.227,49.603z"/>
	<path style="fill:#C0C2C4;" d="M20.381,78.726c-2.007-0.104-3.695-1.223-5.662-1.415c-0.06,1.673-0.411,3.31-0.298,5.067
		c0.138,0.097,0.127,0.145,0.298,0.222c0.083,0.055,0.072,0.047,0.226,0.075c0.307-0.501,1.22-2.019,1.859-2.083
		c1.438,1.854,1.854,6.137,0.374,8.341c-0.411,0.608-1.14,1.483-2.459,1.119c-3.619-1.011-3.376-8.169-3.352-12.813h0.149v0.072
		c0.399,0.396,0.237,1.771,0.225,2.531c0.284,0.499,0.066,1.813,0.222,2.461c0.457,1.923,0.713,3.641,1.935,4.768
		c0.351,0.322,1.249,0.869,1.863,0.447c1.424-0.375,1.907-3.074,1.263-4.618c-0.756,0.806-1.063,1.984-2.532,2.086
		c-0.103-0.081-0.214-0.112-0.372-0.15c-1.306-2.031-0.269-5.186-0.224-7.818c-1.041-0.324-2.086-0.648-3.128-0.97
		c0.048-0.472,0.099-0.945,0.149-1.416c0.418,0.054,0.721,0.253,1.045,0.375c1.235,0.451,2.516,0.723,3.723,1.115
		c0.771,0.253,1.694,0.146,1.712-0.818c-0.41-0.407-0.671-0.892-1.263-1.12c-0.746-0.124-1.489-0.249-2.237-0.372
		c-1.13-0.377-2.152-1.948-1.712-3.799c0.133-0.564,0.344-1.063,0.595-1.492h0.075v0.076c0.164,0.129,0.186,0.179,0.224,0.446
		c-0.549,0.42-0.407,1.223-0.298,1.938c0.326,0.243,0.535,0.586,0.968,0.744c0.845,0.149,1.689,0.298,2.535,0.449
		c1.513,0.625,2.141,2.334,1.864,4.545h0.075v0.074c0.446,0.019,1.96,0.38,2.233,0.594c0.06,0.089,0.057,0.127,0.074,0.301
		C20.381,77.91,20.378,78.379,20.381,78.726z"/>
	<path style="fill:#C0C2C4;" d="M186.287,98.172c-0.02-2.178-0.07-4.731-0.075-7h-0.072c-0.354,0.512-1.04,0.772-1.415,1.264
		c-0.16,0.216-0.292,0.53-0.52,0.671c-0.147,0.024-0.294,0.052-0.447,0.079c-0.601-0.373-1.449-0.188-1.49-1.118
		c0.057-0.077,0.024-0.022,0.072-0.15c2.507-0.271,4.171-2.08,5.592-3.5c0.538-0.542,1.379-1.239,1.641-2.011
		c0.153-0.435-0.032-1.841-0.15-2.385v-0.893c-0.236-1.082-0.202-2.448-0.446-3.503c-0.027-0.321-0.052-0.643-0.075-0.967
		c-0.236-0.678-1.113-0.813-1.268-1.49c-0.034-0.226,0.111-0.327,0.299-0.523c0.527-0.007,0.891,0.062,1.264,0.151
		c0.629,1.367,0.311,3.333,0.673,4.993c0.183,0.84,0.113,1.976,0.296,2.829v1.192c0.252,1.165-0.12,2.694,0.149,3.946
		c0.214,1.007,0.216,2.945,0,3.95v1.269c-0.197,0.9-0.244,2.026-0.45,2.826h-0.146v-0.445c-0.191-0.312,0-2.141,0-2.907
		c0-2.389-0.059-4.793-0.071-7.151h-0.079v0.149c-1.002,0.886-1.626,2.211-2.605,3.126c0.024,2.687,0.067,5.395-0.449,7.599H186.287
		z"/>
	<path style="fill:#C0C2C4;" d="M63.811,95.488c1.003-0.016,2.086-0.299,2.978-0.523c1.782-0.438,3.387-0.131,3.354-2.381
		c0.173-0.025,0.349-0.05,0.521-0.071v0.146c0.208,0.321,0.118,0.762,0.224,1.19c0.129,0.517,0.742,2.736,0.594,3.055
		c-0.626,0.422-1.794,0.254-2.606,0.449c-1.108,0.264-2.316,0.301-3.501,0.596c-0.707,0.174-1.473,0.35-2.309,0.374
		c-0.15-1.442-0.3-2.884-0.447-4.321c2.358-1.084,3.512-4.344,2.607-7.897c-0.697-2.75-1.672-4.415-3.945-5.585
		c-0.799-0.408-2.162-0.831-3.43-0.524c-2.505,0.615-4.053,2.237-4.769,4.621c-0.878,2.941,0.439,6.844,1.639,8.491
		c0.401,0.546,1.208,1.144,1.862,1.415c0.384,0.161,1.055,0.122,1.265,0.446c0.374,1.368,0.745,2.731,1.117,4.098
		c-2.607,0.445-5.214,0.894-7.822,1.343v-0.074h-0.076c-0.271-1.439-0.543-2.883-0.819-4.324H50.4
		c0.097-0.064,0.185-0.064,0.372-0.072c0.048,0.506,0.326,1.054,0.745,1.189c0.656,0.619,3.509-0.074,4.395-0.299
		c0.432-0.107,0.883-0.008,1.192-0.22c0.058-0.077,0.028-0.021,0.075-0.149c-0.11-0.174-0.106-0.506-0.222-0.671v-0.073
		c-3.665-0.051-6.125-2.797-7.004-5.736c-0.382-1.276-0.519-3.174-0.075-4.545c1.131-3.47,3.565-5.198,7.153-6.257
		c0.738-0.216,2.564-0.667,3.579-0.449c1.144,0.25,2.235,0.265,3.201,0.671c2.131,0.901,3.814,2.534,4.619,4.767
		c0.207,0.579,0.148,1.078,0.297,1.715c0.212,0.926,0.184,2.207-0.077,3.128c-0.202,0.726-0.511,1.549-0.891,2.163
		c-0.562,0.901-1.447,1.854-2.314,2.454c-0.243,0.171-1.55,0.739-1.635,0.896C63.811,94.842,63.811,95.168,63.811,95.488
		L63.811,95.488z"/>
	<path style="fill:#C0C2C4;" d="M187.705,81.335c-0.174-0.423-0.97-1.667-1.717-1.192h-0.151c0.05-0.129,0.017-0.071,0.075-0.15
		c-0.001-0.354-0.043-0.471-0.146-0.671c-0.15-0.024-0.297-0.048-0.452-0.072c-0.073,0.058-0.016,0.025-0.144,0.072
		c0.049,0.451,0.209,0.465,0.221,0.968c-1.196,1.1-2.223,3.731-1.341,5.962c0.162,0.411,0.477,1.091,0.815,1.341
		c0.161,0.119,0.249,0.075,0.377,0.223C187.709,88.029,188.712,83.783,187.705,81.335z M186.585,86.255
		c-0.147,0.159-0.434,0.218-0.597,0.37c-1.56-0.117-1.685-2.963-1.122-4.319c0.166-0.401,0.497-0.659,0.747-0.97
		c0.153-0.029,0.142-0.018,0.221-0.076c0.563-0.001,0.722,0.108,1.042,0.299C187.448,82.899,187.531,85.238,186.585,86.255
		L186.585,86.255z"/>
	<path style="fill:#C0C2C4;" d="M131.971,119.4c-0.025-0.147-0.045-0.295-0.071-0.446c0.792-0.33,2.175-0.663,2.458-1.49
		c0.509-0.627-0.006-3.037-0.224-3.8c-0.866-3.047-1.324-6.34-2.232-9.312c-0.336-1.102-0.367-2.768-1.412-3.126
		c-0.669-0.517-2.307,0.349-2.608,0.146c-0.101-0.125-0.124-0.236-0.146-0.446h0.074v-0.076c0.663-0.074,1.3-0.406,1.858-0.596
		c1.135-0.38,2.16-0.551,3.279-0.97c1.185-0.442,2.553-1.145,3.874-1.341c0.025,0.174,0.05,0.348,0.073,0.521
		c-0.833,0.312-2.287,0.76-2.384,1.788c-0.279,0.423,0.166,2.396,0.296,2.83c0.703,2.271,1.13,4.826,1.788,7.15
		c0.217,0.772,0.19,2.193,0.597,2.755v-0.075c0.618-0.69,1.173-2.31,1.642-3.201c1.221-2.345,2.329-4.731,3.423-7.225
		c0.451-1.016,1.603-2.791,1.718-3.947c-0.382-0.53-0.295-1.404-0.968-1.641c-0.588-0.517-2.455,0.307-2.534,0.222
		c-0.049-0.027-0.099-0.052-0.149-0.075v-0.448c0.599-0.063,1.093-0.399,1.566-0.597c1.516-0.629,2.977-1.002,4.469-1.637
		c0.729-0.312,1.521-0.835,2.384-0.969c0.042,0.207,0.128,0.351,0.075,0.447c-0.321,0.39-0.993,0.527-1.412,0.818
		c-0.31,0.217-0.486,0.561-0.746,0.818c-0.17,1.819,0.397,3.359,0.816,4.844c0.655,2.315,0.95,4.714,1.563,7.002
		c0.312,1.166,0.43,3.804,1.268,4.319c0.725,0.452,1.93-0.234,2.459-0.374c0.025,0.175,0.045,0.35,0.074,0.523
		c-2.118,0.801-4.252,1.723-6.334,2.605c-0.298,0.127-1.999,0.684-2.007,0.671c-0.079-0.108-0.119-0.292-0.149-0.449
		c0.8-0.299,2.05-0.8,2.385-1.562c0.34-0.787,0.046-2.032-0.15-2.757c-0.533-1.979-0.736-4.004-1.265-5.886
		c-0.276-0.98-0.418-1.938-0.672-2.83c-0.124-0.439-0.03-1.055-0.374-1.264c-0.145,1.094-1.138,2.523-1.563,3.498
		c-1.124,2.555-2.231,5.012-3.499,7.446c-0.43,0.829-1.633,2.568-1.713,3.506c0.127,0.395,0.248,0.794,0.376,1.188
		c0.146,0.126,0.295,0.247,0.446,0.377c1.147,0.023,1.786-0.227,2.607-0.448c0.024,0.17,0.045,0.348,0.077,0.521
		c-1.923,0.713-3.815,1.271-5.814,1.938C134.156,118.699,133.118,119.229,131.971,119.4L131.971,119.4z"/>
	<path style="fill:#C0C2C4;" d="M186.351,117.99c-0.232-0.05-0.497-0.079-0.821-0.075c-0.269,0.245-0.671,0.305-0.969,0.522
		c-0.944,0.678-1.931,1.812-2.607,2.754c-0.544,0.758-1.006,1.586-1.488,2.386c-0.211,0.349-0.257,0.759-0.522,1.041v0.15
		c0.649-0.112,1.032-0.533,1.489-0.817c1.24-0.771,2.353-1.473,3.497-2.308c0.556-0.406,0.971-1.036,1.564-1.419
		C186.548,119.336,186.729,118.634,186.351,117.99z M184.636,120.596c-0.452,0.33-0.887,0.796-1.34,1.12
		c-0.392,0.271-0.863,0.415-1.192,0.743h-0.076c0.245-0.77,1.545-2.087,2.156-2.531c0.319-0.232,0.721-0.295,1.048-0.527h0.294
		c0.067,0.089,0.063,0.084,0.15,0.149C185.604,120.112,185.005,120.318,184.636,120.596z"/>
	<path style="fill:#C0C2C4;" d="M26.267,130.726c-0.125-0.841-0.6-1.596-0.895-2.313c-0.658-1.604-1.173-3.296-1.715-4.915
		c-0.312-0.944-0.524-1.863-0.819-2.757c-0.149-0.462-0.117-0.988-0.374-1.343v-0.222c0.506,0.185,1.278,0.166,1.714,0.451h0.378
		c-0.085-0.387-0.162-1.039-0.378-1.342c-0.226-0.368-1.667-0.372-2.083-0.667c-0.586-0.463-1.143-1.786-1.565-2.46
		c-1.055-1.672-2.452-3.451-4.023-4.618c-0.835-0.62-1.413-1.263-2.906-1.27c-0.174,0.126-0.348,0.251-0.52,0.374
		c-0.335,1.488,0.261,4.23,1.114,4.92v0.147c-0.356-0.095-0.74-0.29-0.968-0.522h-0.075c0.013,0.428,0.096,0.984,0.297,1.264
		c0.086,0.368,0.681,0.665,1.043,0.743c0.467,1.952,1.115,3.958,1.789,5.742c0.543,1.429,0.821,2.792,1.413,4.169
		c0.292,0.671,0.984,1.161,1.194,1.864h0.221c-0.168-0.633-0.511-1.22-0.743-1.789c-0.684-1.647-1.23-3.395-1.793-5.064
		c-0.365-1.094-0.618-2.156-0.968-3.205c-0.129-0.394-0.093-0.802-0.297-1.118v-0.074c0.505,0.091,0.809,0.355,1.193,0.524
		c0.868,0.381,1.699,0.523,2.607,0.893c0.664,0.272,1.499,0.651,2.312,0.741c0.09,0.68,0.476,2.446,0.817,2.906v0.225
		c-1.133-0.78-1.109-1.885-3.13-1.715c-0.102,0.114-0.241,0.217-0.373,0.295c-0.184,0.463-0.196,1.221,0,1.717
		c0.485,1.216,2.02,3.747,3.279,4.094c0.484,0.349,1.194-0.078,1.412-0.45c0.455,0.24,0.552,1.281,0.744,1.793
		c0.399,1.049,0.983,2.428,1.94,2.906v0.074C26.167,130.726,26.215,130.726,26.267,130.726z M21.498,117.466
		c-0.787-0.053-1.456-0.364-2.087-0.597c-1.684-0.624-3.205-1.157-4.692-1.864c-0.177-0.675-1.431-3.091-0.744-3.946
		c0.048-0.074,0.098-0.15,0.149-0.222c0.151-0.032,0.144-0.021,0.223-0.075c2.295,0.277,4.598,3.066,5.735,4.618
		c0.444,0.605,0.81,1.504,1.416,1.939V117.466z M22.689,123.943c-0.225,0.279-0.447,0.549-0.671,0.821
		c-0.199,0.144-0.421,0.208-0.596,0.373c-1.28-0.04-1.325-1.293-1.862-2.087c0.009-0.73,0.288-0.732,0.594-1.119
		c0.173-0.013,0.21-0.013,0.298-0.069c1.156,0.008,1.418,0.524,2.087,0.968C22.648,123.274,22.719,123.466,22.689,123.943z"/>
	<path style="fill:#C0C2C4;" d="M62.991,121.862c1.073-0.019,2.671,1.015,2.682,2.009c-1.294,0.841-1.977,2.066-2.83,3.353
		c-0.338,0.506-0.913,1.029-1.042,1.716c0.733,0.355,1.317,1.081,2.085,1.343v-0.079c0.372-0.299,1.793-3.002,1.936-3.577
		c0.11-0.437-0.258-0.772-0.149-1.043c0.095-0.187-0.032-0.053,0.149-0.148c0.731-0.467,2.712,0.954,2.757,1.643
		c-1.708,0.845-2.568,2.632-3.652,4.094c-0.548,0.745-1.613,1.482-1.936,2.387h0.22c0.441-0.296,1.1-0.275,1.643-0.448
		c0.794-0.264,1.577-0.689,2.46-0.82v-0.223c-0.447-0.257-1.021-0.75-1.197-1.264h0.077v-0.074c1.553,0.294,2.937,1.069,3.876,2.009
		c0.027,0.423,0.051,0.845,0.076,1.268c-0.076,0.027-0.148,0.05-0.224,0.071c-0.43,0.228-1.67-0.967-1.938-1.264
		c-0.998,0.446-2.019,0.993-2.98,1.486c0.074,0.062,0.02,0.029,0.149,0.076c0.42,0.396,1.031,0.533,1.342,1.043
		c0.123,0.596,0.249,1.196,0.374,1.788c0.416,1.391,1.221,3.09,0.893,4.843h-0.521c-0.463-0.681-0.978-0.968-1.265-1.938
		c-0.165-0.547,0.066-1.231-0.076-1.86c-0.327-1.433-0.57-2.692-1.415-3.578c-0.924,0.393-1.697,0.725-2.312,1.418
		c-0.917-0.208-1.829-1.139-1.859-2.234c0.114-0.042,0.126-0.046,0.298-0.074c0.178,0.129,0.431,0.149,0.744,0.149
		c0.606-0.926,1.848-1.75,2.086-2.985c-1.71-0.753-3.068-1.171-4.321-2.386v-0.148c0.182-0.062,0.461-0.075,0.742-0.07
		c0.193,0.132,1.017,0.203,1.119,0.145c0.471-0.507,0.602-1.32,0.896-2.01c0.447-1.063,1.002-2.29,1.265-3.499
		C63.227,122.575,62.995,122.318,62.991,121.862z"/>
	<path style="fill:#C0C2C4;" d="M184.854,123.125c-0.087-0.082-0.157-0.188-0.222-0.295h-0.449
		c-0.452,0.382-1.074,0.557-1.563,0.892c-0.756,0.533-1.427,1.242-2.158,1.79c-0.332,0.253-0.814,0.476-1.045,0.819
		c-0.377,0.562-0.302,1.516-0.744,2.01v0.296c0.597-0.215,0.873-0.912,1.342-1.264c0.575-0.437,1.062-1.011,1.638-1.418
		c0.365-0.253,0.774-0.391,1.12-0.671c0.235,0.042,0.216,0.067,0.377,0.15c-0.036,1.894-1.034,3.228-1.642,4.62
		c-0.175,0.403-0.228,1.04-0.526,1.339c-0.135,0.141-0.43,0.174-0.592,0.295c-0.497,0.547-0.994,1.091-1.492,1.643
		c-0.472,0.646-0.69,1.513-1.188,2.158c-0.008,0.215-0.008,0.405,0.067,0.522c0.074,0.057,0.211,0.11,0.3,0.149
		c0.959-0.911,1.891-1.669,2.683-2.758c1.236-1.703,1.856-3.854,2.757-5.882C184.08,126.24,184.897,124.977,184.854,123.125z
		 M178.969,134.599v0.074h-0.074c0.13-0.891,0.809-1.139,1.12-1.792h0.148C180.066,133.625,179.506,134.286,178.969,134.599z"/>
	<path style="fill:#C0C2C4;" d="M67.611,135.791c0.883,0.179,3.312,1.224,3.351,2.158c0.144,0.215,0.014,0.47-0.073,0.672
		c-0.118,0.04-0.179,0.056-0.375,0.074c-0.381,0.175-0.718-0.263-0.969-0.449C69.042,137.875,67.462,136.437,67.611,135.791
		L67.611,135.791z"/>
	<path style="fill:#C0C2C4;" d="M82.211,138.174c-0.446,0.128-0.966,0.403-1.414,0.524c-0.348,0.023-0.696,0.048-1.045,0.069
		c-0.118-1.21-0.715-2.153-0.744-3.421c1.12-0.026,2.524-0.17,3.274-0.597c-0.016-0.379-0.084-0.379-0.222-0.596
		c-0.854-0.206-2.316-0.236-2.981,0.219c-0.188-0.009-0.277-0.009-0.372-0.074c-0.417-0.527-0.219-1.599-0.595-2.157v-0.297
		c0.803-0.173,2.112-0.314,2.532-0.894c0.059-0.074,0.027-0.019,0.073-0.146c-0.067-0.066-0.096-0.129-0.148-0.224
		c-1.166-0.295-1.67-0.094-2.679,0.299c-0.313-1.01,0.064-1.812-0.968-2.088c0.22-0.382,0.953-0.367,1.415-0.521
		c0.719-0.237,1.539-0.557,2.161-0.892c0.048-0.13,0.014-0.075,0.074-0.15c-0.04-0.379-0.147-0.366-0.299-0.596
		c-1.075-0.083-1.935,0.021-2.535,0.596h-0.143c0.089-0.555,0.436-1.35,0.741-1.788c0.21-0.306,0.599-0.264,0.744-0.671h0.075
		v-0.075c-0.152-0.198-0.299-0.394-0.449-0.594c-0.35-0.245-0.854-0.268-1.191-0.524c-0.495-0.008-0.97-0.008-1.265,0.146
		c0.039,0.289,0.167,0.467,0.224,0.671c0.206,0.77-0.534,3.144-0.82,3.503c-0.23,0.295-2.919,1.265-3.65,1.045
		c-0.174-0.056-0.678-0.311-0.82-0.451c-0.06-0.077-0.027-0.018-0.073-0.146c1.054-0.995,1.816-3.205,3.278-3.654
		c0.026-0.125,0.05-0.246,0.076-0.374c-0.365-0.376-2.138-2.235-3.054-1.641c-0.075,0.026-0.148,0.044-0.22,0.072
		c0,0.635,0.317,1.115,0.147,1.79c-0.343,1.341-1.105,2.928-1.788,4.022c-0.411,0.657-1.306,1.378-1.34,2.312
		c1.216-0.123,1.51-1.378,2.455-1.718c0.275,0.251,0.546,0.499,0.822,0.748c0.39,0.583,0.316,1.468,0.519,2.231
		c0.347,1.614,0.698,3.229,1.043,4.843c0.049,0.796,0.099,1.588,0.151,2.383c0.201,0.737,0.792,1.987,1.564,2.161
		c0.125,0.063,0.229,0.037,0.372-0.076c0.261-0.214,0.12-0.588,0.299-0.889c0.418-0.3,1.159-0.224,1.714-0.377
		c1.523-0.403,3.301-0.376,4.991-0.745c0.8-0.175,2.124,0.299,2.756-0.074c0.076-0.024,0.152-0.047,0.222-0.076
		C85.083,138.312,83.219,137.894,82.211,138.174z M72.823,129.686c0.12-0.202,2.096-0.52,2.312-0.376
		c0.791,0.367,0.507,1.528,0.968,2.233c-0.155,0.367-1.971,0.919-2.532,0.968C73.471,131.726,73.339,130.112,72.823,129.686z
		 M73.793,133.331c0.57-0.049,2.046-0.537,2.458-0.818h0.075c0.143,0.683,0.225,1.841,0.596,2.385
		c-0.267,0.653-1.912,0.599-2.534,0.968C74.129,135.709,73.785,133.837,73.793,133.331z M77.964,139.142
		c-0.899,0.195-1.833,0.455-2.833,0.451c-0.153-1.065-0.661-1.993-0.669-3.129c1.146-0.026,1.734-0.482,2.681-0.6
		c0.059,0.691,0.486,2.651,0.82,3.131C77.964,139.041,77.964,139.094,77.964,139.142z"/>
	<path style="fill:#C0C2C4;" d="M63.363,136.759c1.016,0.578,0.968,2.933,0.673,4.169c-0.241,0.153-0.299,0.224-0.746,0.224
		c-1.002-1.52-0.792-1.852-0.148-3.426C63.264,137.42,63.25,137.011,63.363,136.759z"/>
	<path style="fill:#C0C2C4;" d="M144.936,153.677c0.224-1.121,0.45-2.234,0.671-3.353c0.249-1.839,0.497-3.678,0.746-5.513
		c0.218-0.981,0.329-2.74-0.295-3.205c-0.464-0.334-1.363-0.21-1.937-0.072c-1.037,0.242-3.469,0.577-4.321,0
		c-1.595-1.072,0.142-4.573,1.714-4.622c0.142,0.316,0.304,0.445,0.519,0.672c2.26,0.164,4.088-0.91,6.265-0.375
		c0.193,0.296,0.484,0.593,0.596,0.97c0.189,0.678,0.083,3.136-0.078,3.872c-0.217,0.985-0.055,1.992-0.296,3.054
		c-0.374,1.642-0.427,3.504-0.817,5.068c-0.139,0.546-0.041,1.003-0.226,1.487C147.15,152.503,146.077,153.668,144.936,153.677
		L144.936,153.677z"/>
	<path style="fill:#C0C2C4;" d="M46.676,161.496c-0.135-0.766-0.996-1.199-1.489-1.642c-1.448-1.291-2.794-2.91-4.466-3.944
		c-0.833-0.517-2.031-0.435-2.385-1.416h0.225c0.112,0.077,0.301,0.074,0.52,0.074c-0.043-0.923-0.704-1.243-1.119-1.792
		c-0.926-1.223-2.261-3.11-4.318-3.126c-0.084,0.155-0.11,0.135-0.15,0.373c0.496,0.525,0.756,1.28,1.341,1.713
		c0.64,0.478,1.498,0.915,1.787,1.717h-0.223c-0.45-0.459-1.043-0.801-1.562-1.196c-0.694-0.521-1.276-1.364-1.788-2.08
		c-0.2-0.289-0.776-0.86-0.594-1.267c0.114-0.344,0.355-0.324,0.818-0.297c0.626,0.428,1.772,0.622,2.457,1.049
		c1.478,0.901,3.838,2.858,4.469,4.539c0.154,0.414-0.095,0.81-0.076,0.972c0.713,0.663,1.809,0.998,2.611,1.557
		c0.968,0.684,2.015,1.449,2.906,2.236c0.24,0.211,0.417,0.553,0.671,0.746c0.696,0.525,1.915,1.39,2.012,2.455
		c-0.776,0.462-2.057-0.158-2.758-0.521c-1.946-1.011-3.599-2.313-5.14-3.727c-0.498-0.458-1.336-1.015-1.263-1.788h0.297
		c0.178,0.252,0.463,0.308,0.669,0.521c0.173,0.178,0.224,0.469,0.374,0.671c0.794,1.062,2.646,2.372,3.801,3.126
		C44.949,160.881,45.666,161.443,46.676,161.496z"/>
	<path style="fill:#C0C2C4;" d="M94.951,167.461c-0.696-1.24-1.611-2.049-2.759-2.83c-3.792-2.596-9.386-5.228-15.868-5.064
		c-0.313,0.195-0.948,0.041-1.339,0.149c-0.542,0.139-0.874,0.418-1.265,0.668c-0.015,1.827,2.721,2.817,4.245,3.2
		c0.91,0.229,1.71-0.193,2.237-0.375c0.405-1.547-1.462-1.772-2.311-2.534h-0.152v-0.07c5.716-0.228,9.994,1.369,13.261,3.797
		c0.816,0.61,1.75,1.473,2.162,2.459c0.152,0.367,0.219,0.968,0,1.27c-0.299,0.826-1.289,0.754-2.235,0.969
		c-2.187,0.497-5.188-0.736-6.185-1.717c-0.203,0.359,0.092,0.908-0.222,1.267c-0.332,0.9-1.483,0.668-2.535,0.893
		c-1.726,0.375-4.43-0.509-5.437-1.192c-0.281-0.188-0.483-0.537-0.746-0.746c-0.014-0.192-0.034-0.252-0.077-0.375
		c0.152-0.138,0.333-0.351,0.447-0.521c2.145-0.161,3.234-0.051,4.475,1.118c-0.033,0.153-0.02,0.146-0.077,0.221
		c-0.139,0.284-0.461,0.317-0.893,0.303v0.144c0.784,0.008,1.116-0.11,1.562-0.371c0.024-0.15,0.05-0.301,0.075-0.45
		c-0.257-0.26-0.434-0.615-0.744-0.821c-1.225-0.801-3.749-1.203-5.139-0.296c-0.219,1.057,0.437,1.631,1.043,2.084
		c1.214,0.92,2.243,1.457,3.949,1.938c0.548,0.152,1.037,0.013,1.64,0.145c0.527,0.124,1.438,0.149,2.011,0
		c0.949-0.239,2.269-1.242,1.19-2.387v-0.069c0.563,0.212,1.024,0.758,1.564,1.046c1.433,0.75,3.805,1.368,5.962,0.893
		c1.057-0.232,2.152-0.232,2.453-1.193C95.582,168.491,95.116,167.759,94.951,167.461z M78.409,161.202
		c0.265,0.178,0.415,0.547,0.672,0.746c-0.006,0.186-0.008,0.276-0.076,0.377c-0.484,1.309-3.21,0.34-3.874-0.153
		c-0.207-0.155-0.287-0.466-0.444-0.668c0.028-0.153,0.018-0.146,0.077-0.221c0.204-0.572,0.784-0.383,1.263-0.671
		C76.971,160.614,77.825,160.804,78.409,161.202z"/>
	<path style="fill:#C0C2C4;" d="M146.796,161.942h0.747v0.146c0.057,0.087,0.052,0.128,0.074,0.299
		c-0.92,0.998-1.836,3.74-3.204,4.091v-0.219c0.508-0.358,2.182-2.621,2.232-3.352h-0.149c-0.351-0.219-0.924,0.116-1.192,0.222
		c-1.054,0.445-1.589,0.844-2.311,1.564c0.021,0.245,0.138,0.395,0.074,0.442c-0.074,0.104-0.145,0.138-0.224,0.225
		c-0.128-0.045-0.07-0.016-0.146-0.075c-0.285-0.094-0.293-0.149-0.299-0.521c0.355-0.328,0.58-0.833,0.968-1.117
		c0.467-0.343,1.067-0.703,1.561-0.968C145.493,162.387,146.304,162.333,146.796,161.942L146.796,161.942z"/>
	<path style="fill:#C0C2C4;" d="M141.582,167.461c-0.442,0.391-1.52,0.43-2.011,0.812h-0.075c0.194-0.279,0.549-0.398,0.747-0.666
		c0.144-0.202,0.205-0.423,0.373-0.597c-0.031-0.153-0.02-0.142-0.075-0.221v-0.15c-2.174-0.397-5.806,1.477-6.928,2.461
		c-0.293,0.251-0.465,0.634-0.744,0.895c0.006,0.209,0.03,0.316,0.072,0.446c1.321,0.089,3.795-0.721,4.093-1.788
		c0.06-0.046,0.021-0.005,0-0.075v-0.148c-0.903-0.056-2.115,0.14-2.677,0.671h-0.073c0.489-0.75,2.303-1.404,3.274-1.715
		c0.323-0.101,1.036-0.284,1.344-0.074c0.07,0.029,0.146,0.046,0.221,0.074c-0.174,0.744-1.237,1.575-1.938,1.788v0.15
		c1.146-0.261,2.19-0.786,3.202-1.192c0.694-0.284,1.479-0.352,2.087-0.746c0.431-0.284,1.897-2.273,2.013-2.828
		C142.762,164.826,142.623,166.525,141.582,167.461z M135.697,168.951v0.223c-0.142,0.091-0.242,0.296-0.376,0.373
		c-0.387,0.224-0.9,0.199-1.267,0.448c-0.17-0.018-0.21-0.014-0.296-0.075h-0.075C133.891,169.278,135.117,168.989,135.697,168.951z
		"/>
	<path style="fill:#C0C2C4;" d="M99.197,175.504c1.834,0.072,3.674,0.147,5.511,0.223c-0.024,0.075-0.048,0.15-0.072,0.222
		c0.563,0.051,0.416,0.319,0.745,0.524c0.562,0.344,1.554,0.651,2.234,0.812v0.154h-0.524c-0.106,0.067-0.245,0.067-0.446,0.067
		c0.002-0.233,0.127-0.095-0.073-0.222c-0.708-0.531-2.077-0.197-2.905,0c-0.529,0.127-1.121-0.043-1.414,0.296
		c-0.081,0.072-0.008-0.003-0.072,0.076h0.221c0.623-0.396,3.154-0.3,4.171-0.296v0.146h-0.599c-0.39,0.245-1.037,0.04-1.564,0.15
		c-0.885,0.193-1.774,0.296-2.826,0.298c-0.027-0.05-0.054-0.104-0.078-0.15c0.125-0.091,0.15-0.156,0.227-0.298
		c-0.234,0.009-0.475,0.012-0.598-0.07c-0.059-0.075-0.026-0.024-0.074-0.151c0.396-0.07,0.796-0.147,1.191-0.217
		c-0.074-0.062-0.02-0.031-0.147-0.074c-0.448-0.298-2.882,0.029-3.131,0.221h0.148c0.288,0.169,1.062,0.114,1.342,0.222v0.07
		h-0.075v0.074c-0.55-0.173-1.379-0.181-1.86-0.296c-0.084-0.153-0.107-0.13-0.15-0.375c0.181-0.094,0.21-0.13,0.521-0.145
		c0.166-0.104,0.423-0.017,0.673-0.076c0.297-0.062,1.829-0.378,2.162-0.221v0.15c0.617,0.327,2.318,0.513,2.978,0.07
		c-0.081-0.062-0.004,0.009-0.072-0.07c-0.45-0.075-0.892-0.15-1.341-0.222v-0.15c0.075-0.022,0.148-0.049,0.223-0.074
		c0.203-0.128,0.616-0.087,0.819-0.224c-2.062-0.003-4.279-0.061-6.26,0.076v0.078h0.077c0.603,0.377,2.041-0.253,2.83,0v0.144
		h-0.147c-0.52,0.377-3.129,0.357-3.578,0c-0.059-0.074-0.026-0.02-0.075-0.144c0.315-0.165,0.737-0.343,1.117-0.452
		C98.608,175.568,98.966,175.655,99.197,175.504z"/>
	<path style="fill:#C0C2C4;" d="M30.662,38.725c-0.463-0.109-1.062-0.16-1.714-0.149c-0.166,0.602-0.515,1.117-0.744,1.638
		c-0.505,1.154-0.954,2.306-1.415,3.43c-0.39,0.933-0.631,2.438-1.192,3.199v0.148c0.781-0.14,1.313-0.929,1.786-1.415
		c1.161-1.194,3.616-4.179,3.578-6.404C30.843,39.057,30.737,38.866,30.662,38.725z M29.247,41.706
		c-0.342,0.562-0.529,1.115-0.895,1.639c-0.335,0.481-0.866,0.851-1.192,1.342h-0.077c0.097-0.568,0.403-1.027,0.6-1.492
		c0.443-1.055,0.746-2.104,1.263-3.052c0.287,0.006,0.505,0.029,0.671,0.147c0.18,0.098,0.052-0.033,0.148,0.15
		C29.918,40.815,29.427,41.405,29.247,41.706z"/>
	<path style="fill:#C0C2C4;" d="M161.472,18.836c-0.78-0.783-1.373-1.767-2.161-2.535v-0.072c-0.386,0.137-1.694,1.295-1.936,1.639
		c-0.472-0.177-0.735-0.687-1.119-0.968c-1.271-0.957-2.473-2.197-4.689-2.16c-0.282,0.216-0.69,0.222-1.044,0.371
		c-1.002,0.434-2.04,1.294-2.458,2.31c-0.468,1.132,0.007,2.808,0.371,3.651c0.736,1.701,1.942,3.138,2.981,4.545
		c0.861,1.158,1.829,2.357,3.425,2.757c1.802,0.449,2.677-1.665,3.354-2.461c0.697-0.819,2.226-1.014,2.757-2.084
		c0.194-0.39,0.062-1.158-0.074-1.489c-0.338-0.803-2.009-3.054-2.683-3.5c0.049-0.449,0.255-0.465,0.447-0.746
		c0.465,0.229,0.637,0.887,0.968,1.267c0.425,0.485,1.027,0.746,1.487,1.191c0.714,0.006,1.141-0.176,1.487-0.521h0.077
		C162.482,19.531,161.827,19.185,161.472,18.836L161.472,18.836z M157.228,26.882c-1.315,0.311-1.969-0.552-2.68-1.267
		c-1.762-1.761-2.957-3.942-4.322-6.108c-0.471-0.744-1.666-2.135-1.044-3.203h0.295c0.378,0.563,1.016,0.955,1.417,1.491
		c1.113,1.475,2.476,2.765,3.577,4.247c0.68,0.914,1.429,1.77,2.084,2.68c0.335,0.469,0.596,1.065,1.047,1.414
		C157.519,26.473,157.375,26.631,157.228,26.882z M158.343,21.594c0.603,0.827,1.421,1.296,1.413,2.755
		c-0.229,0.219-0.295,0.423-0.672,0.52c-0.074,0.061-0.02,0.029-0.146,0.077c-1.054-1.754-2.574-3.222-3.797-4.845
		c-0.397-0.529-1.019-0.962-1.415-1.49c-0.683-0.903-1.493-1.626-2.234-2.455c-0.215-0.247-0.316-0.484-0.593-0.673
		c0.062-0.162,0.061-0.106,0.146-0.222c1.262,0.012,1.872,0.861,2.605,1.417C155.473,18.042,157.001,19.739,158.343,21.594z"/>
</g>
</svg>
