<?xml version="1.0" encoding="utf-8"?>
<!DOCTYPE svg PUBLIC "-//W3C//DTD SVG 1.1//EN" "http://www.w3.org/Graphics/SVG/1.1/DTD/svg11.dtd">
<svg version="1.1" xmlns="http://www.w3.org/2000/svg" xmlns:xlink="http://www.w3.org/1999/xlink" x="0px" y="0px" width="510px"
	 height="490px" viewBox="0 0 510 490" enable-background="new 0 0 510 490" xml:space="preserve">
<g id="Layer_1" xmlns:svg="http://www.w3.org/2000/svg" xmlns:cc="http://creativecommons.org/ns#" xmlns:dc="http://purl.org/dc/elements/1.1/" xmlns:rdf="http://www.w3.org/1999/02/22-rdf-syntax-ns#">
	<path d="M251.895,245.711c-9.696,7.373-11.853,9.85-17.211,18.008c-1.939,3.149-5.56,10.508-6.55,15.445
		c-0.989,4.936-1.73,12.098-1.727,15.891c0.012,12.854,4.103,20.916,8.571,20.636c3.992-0.458,9.072-4.621,16.77-14.076"/>
	<path d="M258.877,245.919c9.696,7.373,11.854,9.849,17.211,18.009c1.939,3.148,5.561,10.508,6.551,15.444
		c0.988,4.937,1.729,12.099,1.727,15.892c-0.012,12.853-4.104,20.915-8.571,20.635c-3.992-0.458-9.071-4.621-16.771-14.076"/>
	<path d="M169.477,189.561c13.46-2.359,26.503-3.885,39.963-5.411c17.623-4.441,26.504,15.68,21.647,30.805
		c-6.105,13.46-14.708,25.255-24.56,36.633c-7.632,8.604-16.724,9.995-25.394,7.076c-6.998-1.939-13.461-6.243-20.399-16.234
		c-3.052-8.604-5.688-13.045-9.574-23.729C148.108,208.849,152.854,194.101,169.477,189.561z"/>
	<path d="M341.559,189.561c-13.46-2.359-26.503-3.885-39.963-5.411c-17.623-4.441-26.504,15.68-21.646,30.805
		c6.104,13.46,14.707,25.255,24.56,36.633c7.632,8.604,16.724,9.995,25.394,7.076c6.998-1.939,13.461-6.243,20.399-16.234
		c3.052-8.604,5.688-13.045,9.574-23.729C362.928,208.849,358.181,194.101,341.559,189.561z"/>
	<path fill="none" stroke="#231F20" stroke-width="2" d="M193.516,336.732c14.718,9.026,40.161,10.419,62.957,10.009
		c25.394-0.129,47.133-1.963,61.408-10.598"/>
	<path fill="none" stroke="#231F20" stroke-width="2" d="M198.667,359.282c16.238,10.204,35.334,13.708,57.326,12.878
		c22.842-0.557,40.351-2.479,56.001-13.172"/>
	<path fill="none" stroke="#231F20" stroke-width="2" d="M341.086,302.794c-5.689,13.344-7.449,18.415-11.553,31.718
		c-3.496,12.289-6.648,36.133-6.648,36.133c-7.652,14.67-37.3,26.392-66.818,25.314c-27.565-0.73-51.807-4.367-69.173-25.315
		c0,0-2.612-23.106-6.108-35.396c-4.103-13.303-5.863-18.374-11.553-31.719"/>
	<path stroke="#231F20" stroke-width="2" d="M198.444,340.256l-0.416,41.212"/>
	<path stroke="#231F20" stroke-width="2" d="M211.973,344.627l-0.208,44.126"/>
	<path stroke="#231F20" stroke-width="2" d="M226.959,346.5l-0.416,46.208"/>
	<path stroke="#231F20" stroke-width="2" d="M240.489,347.541l-0.209,46.832"/>
	<path stroke="#231F20" stroke-width="2" d="M255.684,347.957v46.832"/>
	<path stroke="#231F20" stroke-width="2" d="M270.253,347.749l0.208,46.832"/>
	<path stroke="#231F20" stroke-width="2" d="M283.365,346.5l0.416,46"/>
	<path stroke="#231F20" stroke-width="2" d="M298.561,344.003l0.207,44.126"/>
	<path stroke="#231F20" stroke-width="2" d="M312.297,338.591l0.417,41.628"/>
	<path fill="none" stroke="#231F20" stroke-width="2" stroke-miterlimit="10" d="M162.462,356.039
		c-0.135-0.066-0.273-0.134-0.408-0.2l3.159,18.206l2.877,16.585c1.859,7.991,5.134,15.114,9.514,21.374
		c31.784,45.429,121.968,45.245,155.125-0.604"/>
	<path fill="none" stroke="#231F20" stroke-width="2" stroke-miterlimit="10" d="M345.462,374.649l3.4-19.598l8.199-47.26
		l1.878-10.821c39.332-10.501,27.628-63.664,23.603-78.276c19.843-18.565,35.934-48.054,34.138-86.665
		c-1.226-38.81-18.92-72.86-51.914-96.85c-18.809-14.008-72.094-26.411-96.015-26.428c-35.316-1.785-92.113,4.828-126.082,28.737
		c-30.319,21.749-50.552,59.899-48.537,98.319c1.856,34.864,15.23,67.149,34.366,85.752l0.056,0
		c-4.454,17.692-12.915,65.711,23.286,75.41l1.938,11.168c0.149,0.072,0.294,0.142,0.443,0.215"/>
	<path fill="none" stroke="#231F20" stroke-width="2" stroke-miterlimit="10" d="M332.729,411.399l2.674,0.869l63.276,32.887
		c14.986,13.044,11.24,21.924,21.647,29.973c10.268,9.437,16.79,10.962,22.895,2.082c4.857-10.13,3.887-20.26,5.413-31.222
		c7.076-6.799,12.905-10.269,18.733-17.067c6.383-7.077,6.104-14.154-3.748-19.148c-8.188-3.33-15.957-4.996-25.81-2.082
		c-6.244,1.942-12.904,3.053-21.229-0.416l-68.271-31.639l-2.847-0.986l-2.772,15.98
		C340.57,398.369,337.149,405.285,332.729,411.399z"/>
	<path fill="none" stroke="#231F20" stroke-width="2" stroke-miterlimit="10" d="M80.63,271.852
		c-14.031-11.186-9.517-23.844-26.492-34.146c-7.457-3.728-12.854-5.396-18.839,4.71c-3.827,9.028-3.532,18.643-4.121,27.965
		c-6.672,7.162-14.227,11.383-19.722,20.311c-7.948,12.757,4.121,16.976,10.597,18.546c18.446,4.61,25.118-3.729,42.093-0.295
		c32.926,15.339,66.142,31.262,97.908,46.896l-8.276-47.7C127.876,295.492,106.289,285.998,80.63,271.852z"/>
	<path fill="none" stroke="#231F20" stroke-width="2" stroke-miterlimit="10" d="M165.212,374.045l-3.4,1.175
		c-22.757,12.072-43.432,23.312-69.519,33.303c-21.231,5.272-20.398-7.771-46.208,0.833c-7.354,5.827-7.215,14.152-1.249,20.396
		c6.938,6.8,11.795,11.102,17.9,17.069c1.943,8.603,2.22,15.957,3.33,26.225c4.163,12.628,13.321,11.935,21.23,5.829
		c3.469-4.302,7.771-8.187,10.407-12.905c3.608-6.244,7.632-13.32,12.489-19.148l62.859-33.304l4.552-1.514
		c-4.38-6.26-7.654-13.383-9.514-21.374L165.212,374.045z"/>
	<path fill="none" stroke="#231F20" stroke-width="2" stroke-miterlimit="10" d="M501.502,294.045
		c-6.105-9.021-11.796-14.71-22.48-24.562c0.556-10.545-1.388-20.676-5.411-30.804c-4.163-5.967-11.656-8.604-22.896,2.081
		c-11.379,8.603-7.771,20.121-22.063,32.054c-23.312,11.518-44.542,21.787-70.353,34.553l-1.237,0.427l-8.199,47.26l0.694-0.23
		l94.497-44.542c17.9-7.077,20.398,2.914,36.218,0C492.343,310.14,502.334,305.423,501.502,294.045z"/>
</g>
</svg>
