<?xml version="1.0" encoding="utf-8"?>
<!-- Generator: Adobe Illustrator 15.1.0, SVG Export Plug-In . SVG Version: 6.00 Build 0)  -->
<!DOCTYPE svg PUBLIC "-//W3C//DTD SVG 1.1//EN" "http://www.w3.org/Graphics/SVG/1.1/DTD/svg11.dtd">
<svg version="1.1" id="Layer_1" xmlns="http://www.w3.org/2000/svg" xmlns:xlink="http://www.w3.org/1999/xlink" x="0px" y="0px"
	 width="500px" height="100px" viewBox="0 0 500 100" style="enable-background:new 0 0 500 100;" xml:space="preserve">
<g>
	<path style="fill:none;stroke:#888;stroke-width:0.5" d="M-0.98,29.75c12.68,1.05,9.74-3.22,25.3-3.6c7.34-0.18,15.75,0.61,25.19-0.31c7.9-0.77,16.57,0.53,25.39-1.04
		c8.07-1.43,15.54-6.21,23.96-8.51c8.04-2.19,17.56,2.67,25.57-0.48c7.65,1.4,14.78,1.2,22.45,6.1
		c6.66,4.26,10.27,13.05,16.94,18.76c6.25,5.36,13.82,9.42,20.06,15.12c6.3,5.76,15.92,7.63,22.21,12.79
		c6.87,5.65,9.92,16.67,16.76,20.43c7.98,4.39,18.24,7.6,26.16,7.6c8,0,15.49-6.94,23.01-8.68c7.71-1.78,14.32-5.69,21.45-8.75
		c7.31-3.14,16.42-2.49,23.04-6.4c6.99-4.13,15.36-6.26,21.48-10.57c6.96-4.9,8.3-16.68,13.97-20.84c8.05-5.9,18.08-4.5,23.19-6.43
		c5.86-2.21,13.29-8.27,23.48-9.41c7.78-0.87,16.5-1.61,25.34-2.02c8.43-0.39,17.15,2.72,25.42,2.62c9.12-0.11,17.8-3.39,25.33-3.3
		c14.96,0.18,12.46,6.37,25.11,6.87"/>
</g>
<g>
	<path d="M78.93,12.02c0.65,2.04,1.51,4.26,1.08,6.21c-0.44,2.02-1.48,4.31-2.86,5.84c-1.34,1.48-3.88,1.55-5.92,2.2
		c-2.04,0.65-3.91,0.98-5.86,0.55c-2.02-0.44-4.34-0.7-5.87-2.09c-1.48-1.34-2.88-3.31-3.53-5.35c-0.65-2.04,0.5-4.2,0.92-6.16
		c0.44-2.02,0.4-4.38,1.79-5.91c1.34-1.48,3.51-2.21,5.55-2.86s4.04-0.47,5.99-0.05c2.02,0.44,3.7,1.37,5.23,2.75
		C76.93,8.5,78.27,9.98,78.93,12.02z"/>
</g>
<polygon points="48,26.07 52.69,20.76 51.72,16.07 52.56,13.45 56.56,14.42 53.08,14.75 54.09,20.35 53.28,25.76 52.91,21.79 "/>
<g>
	<polygon points="54,13.21 53.65,11.99 54.81,12.18 55.36,13.33 	"/>
</g>
</svg>
