<?xml version="1.0" encoding="utf-8"?>
<!-- Generated by IcoMoon.io -->
<!DOCTYPE svg PUBLIC "-//W3C//DTD SVG 1.1//EN" "http://www.w3.org/Graphics/SVG/1.1/DTD/svg11.dtd">
<svg version="1.1" xmlns="http://www.w3.org/2000/svg" xmlns:xlink="http://www.w3.org/1999/xlink" width="21" height="32" viewBox="0 0 21 32">
<path d="M9.6 0.8c-1.76 0-3.2 1.44-3.2 3.2s1.44 3.2 3.2 3.2c1.76 0 3.2-1.44 3.2-3.2s-1.44-3.2-3.2-3.2zM0.416 7.2l0.8 3.2c0.384 1.6 1.344 1.6 2.528 1.6h2.656c0.96 1.6 0.512 3.968 0.8 6.4h-1.44c-1.6 0-4.16 1.6-2.56 4.8l2.4 4.8c1.6 3.2 4 0.8 3.2-0.8l-2.4-4.8c-0.384-0.8 0.416-0.8 0.8-0.8h3.936s1.92 4.192 4.128 7.072c0.832 1.088 1.76 2.528 2.88 2.528 0.8 0 2.176-1.248 0.736-2.976-2.752-3.264-4.48-6.624-4.48-8.224 0-1.856-0.32-5.792-0.8-8h2.4c0.768 1.568 2.016 4 2.016 4 0.864 1.536 2.784 1.408 2.784 0 0-0.192 0-0.608-0.224-1.088l-2.56-5.312c-0.192-0.352-0.416-0.8-1.6-0.8h-12.416l-1.184-4c-0.48-1.6-2.816-1.6-2.816 0 0 0.8 0.288 1.76 0.416 2.4z"></path>
</svg>
