<?xml version="1.0" encoding="utf-8"?>
<!DOCTYPE svg PUBLIC "-//W3C//DTD SVG 1.1//EN" "http://www.w3.org/Graphics/SVG/1.1/DTD/svg11.dtd">
<svg version="1.1" id="Layer_1" xmlns="http://www.w3.org/2000/svg" xmlns:xlink="http://www.w3.org/1999/xlink" width="100px" height="100px" viewBox="0 0 200 200"  xml:space="preserve">
  <path style="fill:rgba(0,0,0,0.25);" d="M135.67,170c0,0,5.67-22.67,13.33-41.33c2.33-7,4.67-17.17,5.89-30.29c0.3-9.38-10.54-15.21-15.71-8.88
  	c2-9.33-12-15.33-16.09-7.71c0.76-11.45-16.24-12.62-17.77-5.18c-1.82-10.69-4.19-44.59-4.34-47.79
  	c-0.28-6.06-10.87-11.84-13.11,0.87c-0.28,1.16-2.12,59.35-2.12,63.1c-0.4,8.89-2.12,16.75-9.67,9.82C70,92,49.67,79.67,48.02,93.21
  	c3.5,11.95,22.15,23.54,24.97,40c5.35,17.12,15.35,19.79,19.21,37.44C94.64,181.83,126.99,185.02,135.67,170z"/>
  <g style="fill:none;stroke:rgba(0,0,0,0.25);stroke-width:5;">
    <path class="st2" d="M107.08,32.92c20.7,1.29,40.6,5.51,59.29,12.26"/>
    <path class="st2" d="M35,40.63c15.25-4.33,31.2-7.02,47.64-7.85"/>
  </g>
</svg>
