<?xml version="1.0" encoding="utf-8"?>
<svg version="1.1" id="tree-graphic" xmlns="http://www.w3.org/2000/svg" xmlns:xlink="http://www.w3.org/1999/xlink" x="0px" y="0px"
	 width="500px" height="500px" viewBox="0 0 500 500" xml:space="preserve">
   <style type="text/css">
    <![CDATA[
    text {
      font-family:'Avenir Next Condensed', Helvetica;
      stroke:none;
      fill:#333;
      text-anchor:middle;
      cursor:default;
    }
    circle, line {
      stroke:#888;
      fill:none;
    }
    circle {
      fill:rgba(255,255,255,0.25);
      cursor:default;
      transition:fill 0.5s, stroke 0.5s;
    }
    g:hover > circle {
      stroke:#333;
      fill:rgba(241, 229, 102, 0.5);
    }
    ]]>
   </style>
  <g class="html">
    <circle cx="145" cy="60" r="25"/>
    <text x="145" y="65">html</text>
    <g class="head">
      <circle cx="85" cy="160" r="25"/>
      <text x="85" y="165">head</text>
      <g>
        <circle cx="170" cy="250" r="25"/>
        <text x="170" y="255">title</text>
      </g>
      <g>
        <circle cx="85" cy="250" r="25"/>
        <text x="85" y="255">meta</text>
      </g>
    </g>
    <g class="body">
      <circle cx="325" cy="160" r="25"/>
      <text x="325" y="165">body</text>
      <g class="header">
        <circle cx="325" cy="250" r="25"/>
        <text x="325" y="255">header</text>
        <g>
          <circle cx="95" cy="405" r="25"/>
          <text x="95" y="410">h1</text>
        </g>
        <g>
          <circle cx="165" cy="405" r="25"/>
          <text x="165" y="410">p</text>
        </g>
      </g>
      <g class="main">
        <circle cx="415" cy="250" r="25"/>
        <text x="415" y="255">main</text>
        <g>
          <circle cx="300" cy="375" r="25"/>
          <text x="300" y="380">h2</text>
        </g>
        <g>
          <circle cx="370" cy="375" r="25"/>
          <text x="370" y="380">p</text>
        </g>
        <g class="ul">
          <circle cx="435" cy="375" r="25"/>
          <text x="435" y="380">ul</text>
          <g>
            <circle cx="435" cy="460" r="25"/>
            <text x="435" y="465">li</text>
          </g>
          <g>
            <circle cx="375" cy="460" r="25"/>
            <text x="375" y="465">li</text>
          </g>
        </g>
      </g>
    </g>
  </g>













  <line x1="81.55" y1="189.28" x2="81.55" y2="217.55"/>
  <line x1="106.38" y1="182.03" x2="149.14" y2="224.79"/>
  <line x1="176" y1="76.46" x2="291.21" y2="143.77"/>
  <line x1="125.69" y1="90.32" x2="97.98" y2="129.92"/>
  <line x1="324.31" y1="190.83" x2="324.31" y2="214.28"/>
  <line x1="349.83" y1="179.1" x2="394.31" y2="223.59"/>
  <line x1="299.59" y1="266.18" x2="115" y2="376.09"/>
  <line x1="304" y1="270" x2="181.55" y2="372.27"/>
  <line x1="394.09" y1="276.35" x2="322" y2="351.76"/>
  <line x1="407.07" y1="280.42" x2="377" y2="347.7"/>
  <line x1="417.67" y1="280.58" x2="429.53" y2="347.54"/>
  <line x1="435" y1="408.24" x2="435" y2="427.25"/>
  <line x1="421" y1="404.75" x2="389" y2="430.75"/>
</svg>
